<svg width="25" height="25" viewBox="0 0 25 25" fill="none" xmlns="http://www.w3.org/2000/svg">
<path fill-rule="evenodd" clip-rule="evenodd" d="M0 12.5C0 5.6 5.5875 0 12.4875 0C19.4 0 25 5.6 25 12.5C25 19.4 19.4 25 12.4875 25C5.5875 25 0 19.4 0 12.5ZM17.4625 7.5H21.15C19.95 5.4375 18.0375 3.8375 15.7375 3.05C16.4875 4.4375 17.0625 5.9375 17.4625 7.5ZM12.5 2.55001C13.5375 4.05001 14.35 5.71251 14.8875 7.50001H10.1125C10.65 5.71251 11.4625 4.05001 12.5 2.55001ZM2.5 12.5C2.5 13.3625 2.625 14.2 2.825 15H7.05C6.95 14.175 6.875 13.35 6.875 12.5C6.875 11.65 6.95 10.825 7.05 10H2.825C2.625 10.8 2.5 11.6375 2.5 12.5ZM3.84995 17.5H7.53745C7.93745 19.0625 8.51244 20.5625 9.26245 21.95C6.96244 21.1625 5.04994 19.575 3.84995 17.5ZM3.84995 7.5H7.53745C7.93745 5.9375 8.51244 4.4375 9.26245 3.05C6.96244 3.8375 5.04994 5.425 3.84995 7.5ZM12.5 22.45C11.4625 20.95 10.65 19.2875 10.1125 17.5H14.8875C14.35 19.2875 13.5375 20.95 12.5 22.45ZM9.575 15H15.425C15.5375 14.175 15.625 13.35 15.625 12.5C15.625 11.65 15.5375 10.8125 15.425 10H9.575C9.4625 10.8125 9.375 11.65 9.375 12.5C9.375 13.35 9.4625 14.175 9.575 15ZM15.7375 21.95C16.4875 20.5625 17.0625 19.0625 17.4625 17.5H21.15C19.95 19.5625 18.0375 21.1625 15.7375 21.95ZM18.125 12.5C18.125 13.35 18.05 14.175 17.95 15H22.175C22.375 14.2 22.5 13.3625 22.5 12.5C22.5 11.6375 22.375 10.8 22.175 10H17.95C18.05 10.825 18.125 11.65 18.125 12.5Z" fill="white"/>
</svg>
