<svg width="28" height="28" viewBox="0 0 28 28" fill="none" xmlns="http://www.w3.org/2000/svg">
<path d="M16.9381 8C17.9149 8.19057 18.8125 8.66826 19.5162 9.37194C20.2199 10.0756 20.6976 10.9733 20.8881 11.95M16.9381 4C18.9674 4.22544 20.8597 5.13417 22.3044 6.57701C23.749 8.01984 24.6601 9.91101 24.8881 11.94M23.8881 19.92V22.92C23.8892 23.1985 23.8322 23.4742 23.7206 23.7293C23.6091 23.9845 23.4454 24.2136 23.2402 24.4019C23.035 24.5901 22.7927 24.7335 22.5289 24.8227C22.265 24.9119 21.9855 24.9451 21.7081 24.92C18.631 24.5856 15.6751 23.5341 13.0781 21.85C10.6619 20.3147 8.61345 18.2662 7.07812 15.85C5.38809 13.2412 4.33636 10.271 4.00812 7.18C3.98313 6.90347 4.01599 6.62476 4.10462 6.36162C4.19324 6.09849 4.33569 5.85669 4.52288 5.65162C4.71008 5.44655 4.93792 5.28271 5.19191 5.17052C5.44589 5.05833 5.72046 5.00026 5.99812 5H8.99812C9.48342 4.99522 9.95391 5.16708 10.3219 5.48353C10.6898 5.79999 10.9302 6.23945 10.9981 6.72C11.1247 7.68007 11.3596 8.62273 11.6981 9.53C11.8327 9.88792 11.8618 10.2769 11.782 10.6509C11.7023 11.0248 11.517 11.3681 11.2481 11.64L9.97812 12.91C11.4017 15.4135 13.4746 17.4864 15.9781 18.91L17.2481 17.64C17.52 17.3711 17.8633 17.1858 18.2372 17.1061C18.6112 17.0263 19.0002 17.0555 19.3581 17.19C20.2654 17.5286 21.2081 17.7634 22.1681 17.89C22.6539 17.9585 23.0975 18.2032 23.4146 18.5775C23.7318 18.9518 23.9003 19.4296 23.8881 19.92Z" stroke="white" stroke-width="2" stroke-linecap="round" stroke-linejoin="round"/>
</svg>
