<svg width="25" height="25" viewBox="0 0 25 25" fill="none" xmlns="http://www.w3.org/2000/svg">
<path fill-rule="evenodd" clip-rule="evenodd" d="M0 12.4687C0 18.9724 4.94987 24.3108 11.2782 24.9373V16.0025C9.82456 15.4762 8.77193 14.0977 8.77193 12.4687C8.77193 10.8396 9.82456 9.46115 11.2782 8.93484V0C4.94987 0.626566 0 5.96491 0 12.4687ZM25 11.2155H16.0652C15.6767 10.1504 14.8496 9.32331 13.7845 8.93484V0C19.6992 0.588972 24.411 5.30075 25 11.2155ZM21.8296 8.70927C20.802 6.20301 18.797 4.19799 16.2907 3.17042V7.46867C16.7544 7.81955 17.1805 8.24561 17.5313 8.70927H21.8296ZM8.77193 7.4812V3.17042C5.06266 4.64912 2.50627 8.27068 2.50627 12.4687C2.50627 16.6667 5.06266 20.2882 8.77193 21.7794V17.4687C7.23058 16.3033 6.26566 14.4612 6.26566 12.4687C6.26566 10.4762 7.23058 8.63408 8.77193 7.4812ZM13.7845 16.0025V24.9373C19.6992 24.3484 24.411 19.6366 25 13.7218H16.0652C15.6767 14.787 14.8496 15.614 13.7845 16.0025ZM17.5313 16.2281C17.1805 16.7043 16.7544 17.1178 16.2907 17.4687V21.7669C18.797 20.7393 20.802 18.7343 21.8296 16.2281H17.5313Z" fill="white"/>
</svg>
