<svg width="25" height="18" viewBox="0 0 25 18" fill="none" xmlns="http://www.w3.org/2000/svg">
<path fill-rule="evenodd" clip-rule="evenodd" d="M8.75 8.75C11.1625 8.75 13.125 6.7875 13.125 4.375C13.125 1.9625 11.1625 0 8.75 0C6.3375 0 4.375 1.9625 4.375 4.375C4.375 6.7875 6.3375 8.75 8.75 8.75ZM0 15.3125C0 12.4 5.825 10.9375 8.75 10.9375C11.675 10.9375 17.5 12.4 17.5 15.3125V17.5H0V15.3125ZM8.74996 13.4375C6.51246 13.4375 3.97496 14.275 2.92496 15H14.575C13.525 14.275 10.9875 13.4375 8.74996 13.4375ZM10.625 4.375C10.625 3.3375 9.7875 2.5 8.75 2.5C7.7125 2.5 6.875 3.3375 6.875 4.375C6.875 5.4125 7.7125 6.25 8.75 6.25C9.7875 6.25 10.625 5.4125 10.625 4.375ZM17.55 11.0125C19 12.0625 20 13.4625 20 15.3125V17.5H25V15.3125C25 12.7875 20.625 11.35 17.55 11.0125ZM20.625 4.375C20.625 6.7875 18.6625 8.75 16.25 8.75C15.575 8.75 14.95 8.5875 14.375 8.3125C15.1625 7.2 15.625 5.8375 15.625 4.375C15.625 2.9125 15.1625 1.55 14.375 0.4375C14.95 0.1625 15.575 0 16.25 0C18.6625 0 20.625 1.9625 20.625 4.375Z" fill="white"/>
</svg>
